<mxfile host="app.diagrams.net" agent="Mozilla/5.0 (Windows NT 10.0; Win64; x64) AppleWebKit/537.36 (KHTML, like Gecko) Chrome/131.0.0.0 Safari/537.36 Edg/131.0.0.0" version="26.0.4">
  <diagram name="Page-1" id="_njR250KxawNv_KeZxcv">
    <mxGraphModel dx="2333" dy="1193" grid="1" gridSize="10" guides="1" tooltips="1" connect="1" arrows="1" fold="1" page="1" pageScale="1" pageWidth="827" pageHeight="1169" math="0" shadow="0">
      <root>
        <mxCell id="0" />
        <mxCell id="1" parent="0" />
        <mxCell id="DI7ByeCIr9uxBluGpbQm-1" value="" style="ellipse;fillColor=strokeColor;html=1;" vertex="1" parent="1">
          <mxGeometry x="384" y="20" width="30" height="30" as="geometry" />
        </mxCell>
        <mxCell id="DI7ByeCIr9uxBluGpbQm-2" value="grid" style="shape=umlFrame;whiteSpace=wrap;html=1;pointerEvents=0;recursiveResize=0;container=1;collapsible=0;width=160;" vertex="1" parent="1">
          <mxGeometry x="840" y="30" width="390" height="370" as="geometry" />
        </mxCell>
        <mxCell id="DI7ByeCIr9uxBluGpbQm-3" value="" style="ellipse;fillColor=strokeColor;html=1;" vertex="1" parent="DI7ByeCIr9uxBluGpbQm-2">
          <mxGeometry x="190" y="30" width="30" height="30" as="geometry" />
        </mxCell>
        <mxCell id="DI7ByeCIr9uxBluGpbQm-5" value="String [][] grid;" style="html=1;align=center;verticalAlign=top;rounded=1;absoluteArcSize=1;arcSize=10;dashed=0;whiteSpace=wrap;" vertex="1" parent="DI7ByeCIr9uxBluGpbQm-2">
          <mxGeometry x="127.5" y="90" width="130" height="30" as="geometry" />
        </mxCell>
        <mxCell id="DI7ByeCIr9uxBluGpbQm-13" style="edgeStyle=orthogonalEdgeStyle;rounded=0;orthogonalLoop=1;jettySize=auto;html=1;entryX=0.5;entryY=0;entryDx=0;entryDy=0;" edge="1" parent="DI7ByeCIr9uxBluGpbQm-2" source="DI7ByeCIr9uxBluGpbQm-6" target="DI7ByeCIr9uxBluGpbQm-7">
          <mxGeometry relative="1" as="geometry" />
        </mxCell>
        <mxCell id="DI7ByeCIr9uxBluGpbQm-6" value="grid = new String [3][3];" style="html=1;align=center;verticalAlign=top;rounded=1;absoluteArcSize=1;arcSize=10;dashed=0;whiteSpace=wrap;" vertex="1" parent="DI7ByeCIr9uxBluGpbQm-2">
          <mxGeometry x="127.5" y="130" width="130" height="30" as="geometry" />
        </mxCell>
        <mxCell id="DI7ByeCIr9uxBluGpbQm-10" value="" style="edgeStyle=orthogonalEdgeStyle;rounded=0;orthogonalLoop=1;jettySize=auto;html=1;" edge="1" parent="DI7ByeCIr9uxBluGpbQm-2" source="DI7ByeCIr9uxBluGpbQm-7" target="DI7ByeCIr9uxBluGpbQm-9">
          <mxGeometry relative="1" as="geometry" />
        </mxCell>
        <mxCell id="DI7ByeCIr9uxBluGpbQm-7" value="int i &lt; 3, i++&#xa;int j&lt; 3, j++" style="rhombus;fontSize=7;" vertex="1" parent="DI7ByeCIr9uxBluGpbQm-2">
          <mxGeometry x="165" y="181.88" width="55" height="58.12" as="geometry" />
        </mxCell>
        <mxCell id="DI7ByeCIr9uxBluGpbQm-11" style="edgeStyle=orthogonalEdgeStyle;rounded=0;orthogonalLoop=1;jettySize=auto;html=1;entryX=1;entryY=0.5;entryDx=0;entryDy=0;" edge="1" parent="DI7ByeCIr9uxBluGpbQm-2" source="DI7ByeCIr9uxBluGpbQm-9" target="DI7ByeCIr9uxBluGpbQm-6">
          <mxGeometry relative="1" as="geometry">
            <Array as="points">
              <mxPoint x="290" y="290" />
              <mxPoint x="290" y="145" />
            </Array>
          </mxGeometry>
        </mxCell>
        <mxCell id="DI7ByeCIr9uxBluGpbQm-9" value="layout [i][j] = &quot;...&quot;" style="whiteSpace=wrap;html=1;" vertex="1" parent="DI7ByeCIr9uxBluGpbQm-2">
          <mxGeometry x="138.75" y="280" width="107.5" height="23.75" as="geometry" />
        </mxCell>
      </root>
    </mxGraphModel>
  </diagram>
</mxfile>
